<svg width="64" height="64" viewBox="0 0 64 64" fill="none" xmlns="http://www.w3.org/2000/svg">
<rect width="64" height="64" rx="32" fill="#FD853A"/>
<path d="M14.28 41.5V24.7H17.304V39.028H28.776V41.5H14.28ZM40.1839 24.7C43.4159 24.7 45.9359 25.452 47.7439 26.956C49.5519 28.46 50.4559 30.508 50.4559 33.1C50.4559 35.692 49.5519 37.74 47.7439 39.244C45.9359 40.748 43.4159 41.5 40.1839 41.5H31.5919V24.7H40.1839ZM39.8719 39.028C42.3199 39.028 44.1919 38.492 45.4879 37.42C46.7839 36.348 47.4319 34.908 47.4319 33.1C47.4319 31.292 46.7839 29.852 45.4879 28.78C44.1919 27.708 42.3199 27.172 39.8719 27.172H34.6159V39.028H39.8719Z" fill="white"/>
</svg>
